<svg width="200" height="200" viewBox="0 0 200 200" xmlns="http://www.w3.org/2000/svg">
  <rect x="30" y="30" width="20" height="140" fill="black" />
  <rect x="150" y="30" width="20" height="140" fill="black" />
  <rect x="30" y="95" width="140" height="10" fill="black" />

  <line x1="0" y1="80" x2="180" y2="80" stroke="black" stroke-width="2"/>
  <line x1="20" y1="70" x2="180" y2="70" stroke="black" stroke-width="2"/>
  <line x1="20" y1="90" x2="180" y2="90" stroke="black" stroke-width="2"/>
  <line x1="20" y1="100" x2="180" y2="100" stroke="black" stroke-width="2"/>
  <line x1="20" y1="110" x2="180" y2="110" stroke="black" stroke-width="2"/>

  <path d="M40,110 C45,90 55,70 60,60 C65,70 60,90 55,110 C50,130 55,140 60,150 C65,140 70,120 60,110 Z" fill="black"/>
  <circle cx="60" cy="115" r="5" fill="black"/>

  <circle cx="100" cy="95" r="5" fill="black"/>
  <line x1="105" y1="95" x2="105" y2="75" stroke="black" stroke-width="2"/>

  <circle cx="130" cy="85" r="5" fill="black"/>
  <line x1="135" y1="85" x2="135" y2="65" stroke="black" stroke-width="2"/>

</svg>